<svg width="300" height="43" viewBox="0 0 300 43" fill="none" xmlns="http://www.w3.org/2000/svg">
<path d="M50.5631 21.108C50.5631 10.7488 55.7521 4.97493 63.912 4.97493C69.4568 4.97493 73.0485 7.31079 75.2209 12.073L70.2099 14.7173C69.3244 11.9825 67.3713 10.1319 63.912 10.1319C59.5672 10.1319 56.77 13.2615 56.77 18.5048V23.3534C56.77 28.642 59.5631 31.6399 63.912 31.6399C67.4168 31.6399 69.5892 29.5261 70.6071 26.7461L75.3533 29.522C73.1354 34.1074 69.4568 36.7928 63.912 36.7928C55.7521 36.7928 50.5631 31.459 50.5631 21.0998V21.108Z" fill="black"/>
<path d="M87.3408 36.2705H81.4857V5.50543H95.4552C101.087 5.50543 104.592 9.20662 104.592 15.0257C104.592 19.2574 102.639 22.4733 98.8276 23.7523L105.171 36.2705H98.6497L92.8856 24.4144H87.3408V36.2705ZM94.8801 19.5206C97.1435 19.5206 98.5173 18.2869 98.5173 16.0374V14.0099C98.5173 11.7604 97.1435 10.5719 94.8801 10.5719H87.3408V19.5206H94.8801Z" fill="black"/>
<path d="M110.55 20.89C110.55 10.4897 115.917 4.97904 124.032 4.97904C132.146 4.97904 137.513 10.4897 137.513 20.89C137.513 31.2904 132.192 36.801 124.032 36.801C115.872 36.801 110.55 31.2904 110.55 20.89ZM131.306 23.2711V18.5089C131.306 13.2656 128.467 10.136 124.032 10.136C119.596 10.136 116.757 13.2656 116.757 18.5089V23.2711C116.757 28.5145 119.596 31.644 124.032 31.644C128.467 31.644 131.306 28.5145 131.306 23.2711Z" fill="black"/>
<path d="M144.767 36.2705V5.50543H158.691C164.413 5.50543 167.873 9.33822 167.873 15.0257C167.873 20.7132 164.413 24.546 158.691 24.546H150.618V36.2705H144.762H144.767ZM150.622 19.5206H158.161C160.424 19.5206 161.798 18.2869 161.798 16.0374V14.0099C161.798 11.7604 160.424 10.5719 158.161 10.5719H150.622V19.5206Z" fill="black"/>
<path d="M187.35 10.6624V36.2705H181.495V10.6624H172.714V5.50543H196.13V10.6624H187.35Z" fill="black"/>
<path d="M207.99 36.2705H202.134V5.50543H216.104C221.736 5.50543 225.241 9.20662 225.241 15.0257C225.241 19.2574 223.287 22.4733 219.476 23.7523L225.82 36.2705H219.298L213.534 24.4144H207.99V36.2705ZM215.529 19.5206C217.792 19.5206 219.166 18.2869 219.166 16.0374V14.0099C219.166 11.7604 217.792 10.5719 215.529 10.5719H207.99V19.5206H215.529Z" fill="black"/>
<path d="M252.936 36.2705L250.453 28.424H239.454L237.017 36.2705H231.075L241.453 5.50543H248.727L259.018 36.2705H252.936ZM245.04 10.794H244.817L240.869 23.4439H249.029L245.036 10.794H245.04Z" fill="black"/>
<path d="M274.92 22.3417L270.795 27.1903V36.2705H264.94V5.50543H270.795V20.668H271.018L275.408 14.8941L283.08 5.50543H289.821L279.042 18.3321L290.706 36.2705H283.742L274.916 22.3417H274.92Z" fill="black"/>
<path d="M291.832 9.73301C291.848 8.58153 292.25 7.62334 293.04 6.8502C293.801 6.08117 294.761 5.68638 295.916 5.67404C297.074 5.69049 298.043 6.08117 298.812 6.8502C299.586 7.61922 299.983 8.58153 300 9.73301C299.983 10.8845 299.59 11.8345 298.812 12.5912C298.043 13.3766 297.074 13.7755 295.916 13.792C294.757 13.7755 293.797 13.3766 293.04 12.5912C292.25 11.8345 291.848 10.8804 291.832 9.73301ZM292.713 9.73301C292.721 10.6912 293.028 11.4643 293.632 12.0565C294.219 12.6693 294.981 12.9818 295.916 12.9859C296.855 12.9777 297.625 12.6693 298.221 12.0565C298.817 11.4643 299.119 10.6912 299.123 9.73301C299.114 8.76248 298.812 7.98112 298.221 7.38893C297.625 6.78851 296.859 6.4883 295.916 6.48008C294.981 6.4883 294.223 6.78851 293.632 7.38893C293.023 7.98112 292.717 8.76248 292.713 9.73301ZM294.372 7.25322H296.177C297.269 7.24499 297.815 7.71792 297.815 8.66789C297.807 9.1326 297.691 9.46982 297.468 9.67955C297.232 9.88929 296.942 10.0085 296.595 10.0456L297.96 11.9907H297.012L295.647 10.0661H295.183V11.9907H294.372V7.25322ZM295.183 9.33H295.746C296.09 9.33822 296.383 9.30532 296.628 9.2313C296.872 9.14905 296.996 8.95988 297.004 8.66789C296.996 8.39236 296.888 8.21141 296.673 8.12094C296.462 8.0428 296.214 8.00168 295.928 8.00168H295.183V9.33411V9.33Z" fill="black"/>
<path d="M31.864 5.81387C29.3109 2.24839 25.2764 0.179834 20.7744 0.142822C16.5496 0.142822 12.631 2.04688 10.02 5.36972C7.45861 8.63088 6.56069 12.7803 7.56206 16.7612C9.1386 23.0408 13.6406 27.1656 17.6172 30.8051L17.8447 31.0107C18.3247 31.4549 19.3716 32.2486 20.0585 32.7585C20.4558 33.0546 20.9937 33.067 21.4033 32.7914C22.0985 32.3226 23.1744 31.57 23.8861 30.9161C27.5523 27.5481 31.7108 23.7276 33.6432 18.0566C35.075 13.8578 34.4253 9.39579 31.864 5.81387ZM23.9357 17.5343C23.013 18.4185 21.8171 18.8832 20.6585 18.8626C18.1965 18.7763 16.0861 16.5843 16.1399 14.1703C16.1979 11.7399 18.3413 9.6302 20.7454 9.6302C20.762 9.6302 20.7827 9.6302 20.7992 9.6302C23.253 9.6631 25.4088 11.8139 25.4088 14.2402C25.4088 15.4328 24.8709 16.6296 23.9357 17.5302V17.5343Z" fill="black"/>
<path d="M35.257 29.3945C32.7412 29.9662 29.8943 30.9285 27.4819 32.5652C22.6695 35.8264 20.5385 40.6626 19.9344 42.2788C19.8268 42.5708 20.0171 42.8833 20.3275 42.9203C21.3371 43.0355 23.6337 43.1342 27.0847 42.3528C28.0778 42.1266 29.1619 41.8305 30.3412 41.4399C30.3536 41.4357 30.3702 41.4316 30.3826 41.4234C38.4805 38.0471 40.9922 31.2863 41.5922 29.2013C41.6832 28.8887 41.4349 28.5803 41.1039 28.5967C40.0529 28.6461 37.8308 28.8147 35.257 29.3987V29.3945Z" fill="black"/>
<path d="M6.27931 29.3945C3.92071 28.8599 1.85589 28.6749 0.71797 28.6091C0.246249 28.5803 -0.109611 29.0327 0.0310779 29.4809C0.759349 31.8332 3.38692 38.1828 11.1455 41.4234C11.1662 41.4316 11.1827 41.4399 11.2034 41.444C12.3786 41.8347 13.4627 42.1307 14.4517 42.3528C17.6213 43.0725 19.8185 43.0478 20.9358 42.9491C21.3868 42.908 21.6723 42.4515 21.5068 42.0321C20.7909 40.2102 18.6392 35.6742 14.0544 32.5693C11.642 30.9326 8.79102 29.9703 6.27931 29.3987V29.3945Z" fill="black"/>
</svg>
